# xmcd
#
# Track frame offsets:
#	150
#	13035
#	29837
#	42160
#	55302
#	68110
#	80540
#	91860
#
# Disc length: 1437 seconds
#
# Revision: 1
# Processed by: cddbd v1.4PL0 Copyright (c) Steve Scherf et al.
# Submitted via: EasyCDDAExtractor 5.0.6
#
DISCID=63059b08
DTITLE=Gladys Byrd - My Turn Now
DYEAR=1997
DGENRE=Country
TTITLE0=Waiting For You
TTITLE1=Call It Our Lost Love
TTITLE2=My Turn Now
TTITLE3=Kootchie Koo
TTITLE4=Crazy
TTITLE5=First In Line
TTITLE6=Keep Me From Crying
TTITLE7=Lies
EXTD=
EXTT0=
EXTT1=
EXTT2=
EXTT3=
EXTT4=
EXTT5=
EXTT6=
EXTT7=
PLAYORDER=
